<?xml version="1.0" encoding="UTF-8" standalone="no"?>
<!-- Created with Inkscape (http://www.inkscape.org/) -->

<svg
   xmlns:dc="http://purl.org/dc/elements/1.1/"
   xmlns:cc="http://creativecommons.org/ns#"
   xmlns:rdf="http://www.w3.org/1999/02/22-rdf-syntax-ns#"
   xmlns:svg="http://www.w3.org/2000/svg"
   xmlns="http://www.w3.org/2000/svg"
   xmlns:sodipodi="http://sodipodi.sourceforge.net/DTD/sodipodi-0.dtd"
   xmlns:inkscape="http://www.inkscape.org/namespaces/inkscape"
   width="210mm"
   height="297mm"
   viewBox="0 0 210 297"
   version="1.1"
   id="svg3755"
   inkscape:version="0.92.0 r15299"
   sodipodi:docname="ebr vector.svg">
  <defs
     id="defs3749">
    <marker
       style="overflow:visible"
       id="DistanceStart"
       refX="0.0"
       refY="0.0"
       orient="auto"
       inkscape:stockid="DistanceStart"
       inkscape:isstock="true">
      <g
         id="g2300">
        <path
           style="fill:none;stroke:#ffffff;stroke-width:1.15;stroke-linecap:square"
           d="M 0,0 L 2,0"
           id="path2306" />
        <path
           style="fill:#000000;fill-rule:evenodd;stroke:none"
           d="M 0,0 L 13,4 L 9,0 13,-4 L 0,0 z "
           id="path2302" />
        <path
           style="fill:none;stroke:#000000;stroke-width:1;stroke-linecap:square"
           d="M 0,-4 L 0,40"
           id="path2304" />
      </g>
    </marker>
    <marker
       inkscape:stockid="Tail"
       orient="auto"
       refY="0.0"
       refX="0.0"
       id="Tail"
       style="overflow:visible"
       inkscape:isstock="true">
      <g
         id="g4655"
         transform="scale(-1.2)">
        <path
           id="path4643"
           d="M -3.8048674,-3.9585227 L 0.54352094,0"
           style="fill:none;fill-rule:evenodd;stroke:#000000;stroke-width:0.8;stroke-linecap:round" />
        <path
           id="path4645"
           d="M -1.2866832,-3.9585227 L 3.0617053,0"
           style="fill:none;fill-rule:evenodd;stroke:#000000;stroke-width:0.8;stroke-linecap:round" />
        <path
           id="path4647"
           d="M 1.3053582,-3.9585227 L 5.6537466,0"
           style="fill:none;fill-rule:evenodd;stroke:#000000;stroke-width:0.8;stroke-linecap:round" />
        <path
           id="path4649"
           d="M -3.8048674,4.1775838 L 0.54352094,0.21974226"
           style="fill:none;fill-rule:evenodd;stroke:#000000;stroke-width:0.8;stroke-linecap:round" />
        <path
           id="path4651"
           d="M -1.2866832,4.1775838 L 3.0617053,0.21974226"
           style="fill:none;fill-rule:evenodd;stroke:#000000;stroke-width:0.8;stroke-linecap:round" />
        <path
           id="path4653"
           d="M 1.3053582,4.1775838 L 5.6537466,0.21974226"
           style="fill:none;fill-rule:evenodd;stroke:#000000;stroke-width:0.8;stroke-linecap:round" />
      </g>
    </marker>
  </defs>
  <sodipodi:namedview
     id="base"
     pagecolor="#ffffff"
     bordercolor="#666666"
     borderopacity="1.0"
     inkscape:pageopacity="0.0"
     inkscape:pageshadow="2"
     inkscape:zoom="0.98994949"
     inkscape:cx="328.74343"
     inkscape:cy="691.75502"
     inkscape:document-units="mm"
     inkscape:current-layer="layer1"
     showgrid="false"
     inkscape:window-width="1280"
     inkscape:window-height="747"
     inkscape:window-x="-8"
     inkscape:window-y="-8"
     inkscape:window-maximized="1" />
  <metadata
     id="metadata3752">
    <rdf:RDF>
      <cc:Work
         rdf:about="">
        <dc:format>image/svg+xml</dc:format>
        <dc:type
           rdf:resource="http://purl.org/dc/dcmitype/StillImage" />
        <dc:title></dc:title>
      </cc:Work>
    </rdf:RDF>
  </metadata>
  <g
     inkscape:label="Layer 1"
     inkscape:groupmode="layer"
     id="layer1">
    <g
       id="g3768"
       transform="translate(-2.2678495,-9.0714285)"
       style="stroke-width:1.7;stroke-miterlimit:4;stroke-dasharray:none;stroke:#000000;stroke-opacity:1;stroke-dashoffset:13.00000011;paint-order:normal;stroke-linecap:round;stroke-linejoin:round;fill:#ffffff;fill-opacity:1">
      <path
         style="fill:#ffffff;fill-opacity:1;stroke-width:1.7;stroke-miterlimit:4;stroke-dasharray:none;stroke:#000000;stroke-opacity:1;stroke-dashoffset:13.00000011;paint-order:normal;stroke-linecap:round;stroke-linejoin:round"
         d="m 98.784074,194.35523 c -0.727604,-0.11324 -1.710632,-0.20136 -2.184506,-0.19582 -1.059778,0.0124 -1.49887,-0.21524 -2.918769,-1.51315 -0.843262,-0.77082 -1.114433,-1.21506 -1.114433,-1.82567 0,-1.37666 -0.758153,-3.11896 -1.844027,-4.23772 -1.1556,-1.1906 -3.161162,-1.90516 -8.474723,-3.01945 -3.427611,-0.71878 -5.235798,-0.60184 -8.73125,0.56469 -3.445201,1.14977 -5.646018,1.15717 -7.074813,0.0238 -1.188707,-0.94294 -2.450187,-3.88298 -2.450187,-5.71047 0,-2.13352 1.733036,-5.33171 4.798451,-8.85517 3.205734,-3.68475 4.122547,-5.0606 5.930398,-8.89966 2.077201,-4.41104 2.305737,-6.05065 2.250109,-16.14329 -0.02487,-4.51115 -0.13847,-10.34521 -0.25246,-12.96458 -0.231257,-5.31401 -0.432589,-6.02001 -2.025388,-7.10234 l -0.934816,-0.63523 -5.081584,1.96137 c -2.794874,1.07875 -6.298071,2.43275 -7.784887,3.00888 -2.330652,0.90313 -2.990837,1.04752 -4.789164,1.04752 -3.510105,0 -4.546076,-0.74474 -4.546076,-3.26809 0,-1.00782 0.124038,-1.2793 0.859896,-1.88205 1.429589,-1.17097 4.845257,-3.25365 7.618682,-4.64542 2.887673,-1.4491 3.343138,-1.97698 3.602644,-4.17543 0.183292,-1.5528 -0.199801,-3.00985 -1.2103,-4.60324 -0.766392,-1.20848 -3.313903,-3.46692 -4.411103,-3.91057 -0.303402,-0.12268 -3.220433,-0.27046 -6.482292,-0.32841 -6.482971,-0.11516 -7.075023,-0.24179 -8.143001,-1.74162 -0.764113,-1.0731 -1.189268,-3.02979 -1.018285,-4.68646 0.157829,-1.529213 0.863434,-2.771767 3.02701,-5.330497 0.768406,-0.908749 1.568204,-2.371328 2.387299,-4.365625 1.076078,-2.619986 1.229798,-3.233129 1.21622,-4.851125 -0.0098,-1.16989 -0.238791,-2.542998 -0.621639,-3.727839 l -0.606097,-1.875758 0.699858,-1.029933 c 0.441559,-0.649812 0.699858,-1.387203 0.699858,-1.997954 0,-0.53241 0.23551,-1.487037 0.523356,-2.121393 0.311209,-0.685845 0.527354,-1.743253 0.533218,-2.608581 0.0054,-0.800365 0.09734,-1.588781 0.204248,-1.752037 0.106913,-0.163255 1.358937,-0.505401 2.782276,-0.760324 2.976654,-0.533124 3.041904,-0.596189 3.18902,-3.082239 0.11659,-1.97022 0.677322,-3.069742 2.011733,-3.944742 0.518434,-0.339948 1.191772,-0.836141 1.496307,-1.102651 0.632499,-0.553522 1.018879,-0.582984 13.072342,-0.996796 4.292865,-0.14738 11.793802,-0.444434 16.66875,-0.660121 4.874948,-0.215686 14.697601,-0.632431 21.828121,-0.9261 7.13052,-0.293669 18.44146,-0.772935 25.13542,-1.065035 22.80398,-0.995083 37.53924,-1.584959 39.54109,-1.582891 1.91048,0.002 2.01306,0.03343 2.32922,0.714207 0.1819,0.391678 0.33073,0.854261 0.33073,1.027961 0,0.173701 0.1921,0.389536 0.42689,0.479634 0.28708,0.110161 0.37736,0.353232 0.27566,0.742144 -0.0832,0.318081 -0.019,0.737657 0.14261,0.932392 0.2252,0.271342 0.11832,0.537276 -0.45745,1.138247 -0.41321,0.431301 -0.97133,0.784184 -1.24027,0.784184 -0.41981,0 -0.44549,0.08124 -0.18158,0.574367 0.24763,0.462704 0.22872,0.631892 -0.0973,0.870263 -0.22257,0.162744 -0.446,0.588888 -0.49652,0.946988 -0.0691,0.48999 -0.27671,0.67227 -0.83892,0.736687 -0.41088,0.04708 -0.98538,0.323922 -1.27666,0.615208 -0.42683,0.42683 -0.73114,0.495563 -1.56805,0.354167 -0.90754,-0.153327 -1.03844,-0.111621 -1.03844,0.33086 0,0.604611 -1.04972,1.656877 -1.65287,1.656877 -0.47128,0 -0.81762,0.774023 -0.60486,1.351788 0.18945,0.514497 -0.10896,0.883887 -1.18185,1.462956 -1.32802,0.716768 -2.11667,1.46439 -2.11667,2.006557 0,0.340091 -0.20762,0.470365 -0.74965,0.470365 -0.88663,0 -1.19301,0.233515 -0.84947,0.647449 0.3721,0.448359 -0.29431,1.586545 -0.98719,1.686057 -0.54153,0.07778 -0.71824,0.455343 -0.60912,1.301523 0.0509,0.394583 -0.48318,1.456105 -0.85414,1.697723 -0.1464,0.09535 -0.65028,0.125732 -1.11975,0.0675 -0.99566,-0.123494 -1.7413,0.494956 -1.22238,1.013873 0.75088,0.750882 0.056,2.24449 -0.87751,1.886257 -0.577,-0.221419 -0.92352,0.302752 -0.92882,1.405035 -0.005,1.119352 -1.13952,1.990074 -2.11599,1.624537 -0.46859,-0.175416 -0.68781,-0.152593 -0.76523,0.07966 -0.0597,0.179028 -0.54374,0.810493 -1.0757,1.403255 -1.52151,1.695397 -1.99657,2.553398 -1.56514,2.826771 0.19725,0.124987 0.42882,0.229074 0.5146,0.231302 0.0858,0.0021 0.29825,0.31633 0.47216,0.698007 0.25838,0.567079 0.24084,0.808953 -0.0959,1.322917 -0.22666,0.345927 -0.34565,0.62896 -0.26441,0.62896 0.0812,0 0.0153,0.247359 -0.14649,0.549687 -0.17507,0.327131 -0.4526,0.488898 -0.68546,0.39954 -0.26447,-0.101486 -0.48065,0.106235 -0.66705,0.64094 -0.23888,0.685271 -0.40611,0.791083 -1.25021,0.791083 -0.83526,0 -1.01637,0.111072 -1.26797,0.777634 -0.28784,0.762577 -0.32354,0.77506 -1.84394,0.644776 -1.20241,-0.103034 -1.44649,-0.06677 -1.08741,0.161555 0.90345,0.574455 0.38739,1.855618 -0.74744,1.855618 -0.42775,0 -0.61622,0.203758 -0.73422,0.79375 -0.12789,0.63945 -0.29344,0.79375 -0.8516,0.79375 -0.47032,0 -0.73728,-0.16995 -0.83122,-0.529167 -0.17518,-0.669877 -0.87041,-0.695753 -0.87041,-0.03239 0,0.648817 -0.61257,1.143647 -1.15709,0.934697 -0.28745,-0.11031 -0.43041,-0.0239 -0.43041,0.26002 0,0.23385 -0.11906,0.42518 -0.26458,0.42518 -0.14553,0 -0.26459,0.24595 -0.26459,0.54656 0,0.84712 -0.49394,1.57011 -1.07268,1.57011 -0.42779,0 -0.49418,0.12239 -0.35887,0.66153 0.0943,0.37589 -0.0168,1.11846 -0.2574,1.71979 -0.42299,1.05717 -0.42278,1.05826 0.20758,1.05826 0.34705,0 0.69954,0.1786 0.7833,0.39688 0.0838,0.21828 0.35747,0.39687 0.60824,0.39687 0.25077,0 0.91816,0.49568 1.48308,1.10151 0.7707,0.82649 0.98376,1.23935 0.85339,1.65364 -0.0956,0.30368 -0.16987,1.40229 -0.16513,2.44137 0.007,1.54905 -0.085,1.97396 -0.51138,2.35983 -0.5167,0.46761 -0.5166,0.47422 0.0157,1.04084 0.76808,0.81759 0.30074,2.10833 -0.92369,2.55109 -1.06899,0.38655 -1.3462,1.43501 -0.61738,2.33505 0.35245,0.43527 0.45597,0.96528 0.40685,2.08306 -0.0362,0.82458 -0.15863,1.64632 -0.27198,1.8261 -0.13579,0.21537 0.20453,0.61629 0.99776,1.17541 0.83578,0.58911 1.20385,1.03522 1.20385,1.45908 0,0.33579 0.23812,0.84865 0.52916,1.13969 0.76439,0.76438 0.65509,1.23834 -0.40114,1.73955 -1.12659,0.5346 -1.40634,0.90628 -0.68211,0.90628 1.04327,0 1.44135,1.85335 0.65564,3.05249 -0.23518,0.35894 -0.36716,0.88376 -0.29328,1.16628 0.0798,0.30506 -0.0689,0.6976 -0.36614,0.96658 -0.27526,0.2491 -0.50047,0.64877 -0.50047,0.88816 0,0.23938 -0.14783,0.58307 -0.32851,0.76376 -0.23185,0.23185 -0.24367,0.38367 -0.0402,0.51594 0.51865,0.33711 0.67769,2.37675 0.24984,3.20412 -0.40625,0.7856 -1.7454,1.23077 -2.49064,0.82795 -0.45516,-0.24602 -1.58389,0.26043 -1.75076,0.78555 -0.0694,0.21829 0.037,0.87313 0.23633,1.45521 0.27387,0.79969 0.56349,1.12628 1.18504,1.33634 0.45243,0.15291 0.92914,0.39103 1.05934,0.52917 0.33567,0.3561 -0.13533,1.44178 -0.62548,1.44178 -0.63793,0 -0.4814,0.51421 0.53357,1.75286 0.80181,0.9785 1.00927,1.10199 1.42016,0.84539 0.26465,-0.16528 0.68818,-0.22108 0.94117,-0.12399 0.92526,0.35505 -0.036,2.1392 -1.64514,3.05332 -0.40208,0.22842 -0.41742,0.34079 -0.11404,0.8358 0.30871,0.50373 0.27717,0.64995 -0.26459,1.22663 -0.60364,0.64255 -0.60553,0.66171 -0.10148,1.03028 0.28247,0.20655 1.06338,0.37555 1.73536,0.37555 0.67198,0 1.4479,0.16535 1.72428,0.36744 0.27638,0.20209 0.63725,0.31574 0.80193,0.25254 0.16469,-0.0632 0.46016,0.0788 0.65663,0.3155 0.2763,0.33293 0.28806,0.54111 0.0519,0.91922 -0.1679,0.26885 -0.21812,0.52707 -0.11159,0.57383 0.10652,0.0468 0.59933,0.72325 1.09513,1.50331 0.98445,1.54887 0.95121,1.82611 -0.334,2.78565 -0.67213,0.50182 -0.74794,0.50584 -1.62759,0.0864 -0.88008,-0.41968 -0.93508,-0.41669 -1.1928,0.0649 -0.14859,0.27765 -0.27017,0.64603 -0.27017,0.81862 0,0.60209 1.45872,2.61216 1.90261,2.62175 0.24608,0.005 0.52099,0.12872 0.61093,0.27424 0.4119,0.66647 2.61097,-0.11486 2.90174,-1.03099 0.23056,-0.72642 0.72581,-0.83127 1.69936,-0.35977 1.07864,0.5224 1.68243,1.60352 1.28857,2.30729 -0.42308,0.75601 -0.44495,2.48336 -0.0417,3.29174 0.26681,0.53484 0.68869,0.80053 1.67087,1.05225 1.74137,0.4463 2.12167,0.90503 1.56067,1.88251 -0.37413,0.6519 -0.37783,0.78382 -0.0317,1.12997 0.30817,0.30817 0.59889,0.33643 1.36057,0.13227 1.81962,-0.48773 2.5098,-0.40182 2.87797,0.35823 0.49272,1.01717 1.08222,1.44768 1.46212,1.06779 0.77601,-0.77602 2.93055,-0.13116 2.8034,0.83907 -0.0418,0.31892 0.12936,0.87302 0.38032,1.23133 0.25097,0.35831 0.45631,0.92263 0.45631,1.25406 0,0.41818 0.15572,0.60258 0.50887,0.60258 0.72496,0 2.14445,1.26014 1.96024,1.74018 -0.0835,0.21769 -0.34264,0.33149 -0.58221,0.25571 -0.23743,-0.0751 -0.78888,0.0992 -1.22544,0.38725 -0.43656,0.28809 -1.00211,0.52458 -1.25677,0.52554 -0.25466,0.001 -0.46302,0.1208 -0.46302,0.26632 0,0.14553 -0.39291,0.26459 -0.87313,0.26459 -0.48021,0 -1.00321,0.13009 -1.16222,0.28909 -0.20907,0.20907 -0.43862,0.20907 -0.82927,0 -0.2971,-0.159 -0.84566,-0.28909 -1.21903,-0.28909 -0.53479,0 -0.67885,-0.13102 -0.67885,-0.61736 0,-0.33955 -0.0692,-0.68661 -0.15387,-0.77124 -0.19588,-0.19588 -2.03718,0.5621 -2.27132,0.93499 -0.3039,0.48402 -4.89444,0.64814 -5.35126,0.19132 -0.14679,-0.14678 -0.43017,-0.26688 -0.62974,-0.26688 -0.19957,0 -0.54145,-0.17859 -0.75973,-0.39687 -0.21829,-0.21828 -0.65626,-0.40496 -0.97329,-0.41484 -0.31703,-0.01 -1.05267,-0.0589 -1.63475,-0.10894 -3.37482,-0.2901 -4.24391,-0.2805 -4.49792,0.0497 -0.15858,0.20613 -0.89876,0.35801 -1.84752,0.37909 -0.87062,0.0193 -1.76359,0.12678 -1.98438,0.23876 -0.22079,0.11198 -0.87768,0.33135 -1.45976,0.4875 -0.75026,0.20125 -1.19486,0.52582 -1.52734,1.11497 -0.41369,0.73305 -0.56692,0.8115 -1.29905,0.66507 -1.24779,-0.24956 -2.59757,0.32508 -2.59757,1.10586 0,0.348 -0.23813,0.93545 -0.52917,1.30545 -0.29104,0.37 -0.52916,0.81473 -0.52916,0.98829 0,0.51601 -3.05748,3.29514 -4.10813,3.73413 -0.8248,0.34462 -1.34827,0.36113 -3.45911,0.1091 -1.36798,-0.16333 -2.74015,-0.2167 -3.04928,-0.11858 -0.35323,0.11211 -0.64447,0.045 -0.78389,-0.18066 -0.12202,-0.19747 -0.49411,-0.37829 -0.82687,-0.40181 -0.33276,-0.0235 -1.37892,-0.21586 -2.32481,-0.42742 -1.14516,-0.25613 -2.91614,-0.36359 -5.30032,-0.32161 -4.01216,0.0706 -5.04724,0.22866 -6.24028,0.95263 -0.45374,0.27535 -1.06424,0.50063 -1.35667,0.50063 -0.29243,0 -0.66896,0.16541 -0.83674,0.36757 -0.41653,0.50189 -1.23448,0.60817 -2.802446,0.36414 z"
         id="path3772"
         inkscape:connector-curvature="0" />
      <path
         style="fill:#ffffff;fill-opacity:1;stroke-width:1.7;stroke-miterlimit:4;stroke-dasharray:none;stroke:#000000;stroke-opacity:1;stroke-dashoffset:13.00000011;paint-order:normal;stroke-linecap:round;stroke-linejoin:round"
         d="m 98.519491,194.14112 c -0.727604,-0.11299 -1.687571,-0.14755 -2.133262,-0.0768 -0.644048,0.10225 -0.99206,-0.0411 -1.695828,-0.69851 -0.487016,-0.45494 -1.104627,-0.94445 -1.372468,-1.0878 -0.298042,-0.1595 -0.486984,-0.55318 -0.486984,-1.01468 0,-1.42894 -0.85875,-3.45715 -1.9616,-4.63296 -0.899361,-0.95885 -1.45751,-1.27081 -3.32011,-1.85567 -1.939645,-0.60906 -5.304145,-1.33724 -8.476623,-1.83459 -0.999543,-0.1567 -2.824343,0.21238 -6.313832,1.27702 -2.943045,0.89793 -4.745244,0.89308 -6.11964,-0.0164 -0.873856,-0.57829 -1.180807,-1.04362 -1.873809,-2.84063 -1.010975,-2.62155 -0.948801,-3.44625 0.495009,-6.56571 0.770628,-1.665 1.62229,-2.88577 3.476609,-4.98333 4.501814,-5.09237 6.990713,-9.7102 7.937495,-14.72703 0.525905,-2.78666 0.545825,-3.50873 0.397574,-14.41009 -0.145553,-10.70286 -0.327422,-13.54167 -0.954752,-14.90262 -0.137549,-0.29841 -0.720254,-0.87825 -1.294897,-1.28854 l -1.044811,-0.74598 -1.387369,0.52676 c -0.763053,0.28972 -4.185338,1.61363 -7.605077,2.94202 -5.239268,2.03518 -6.533159,2.4396 -8.222308,2.57 -2.510603,0.1938 -3.799095,-0.1881 -4.49718,-1.33295 -1.046455,-1.71616 -0.470581,-3.48532 1.448967,-4.4514 0.596234,-0.30008 1.626922,-0.93157 2.290417,-1.40331 0.663495,-0.47174 2.527599,-1.53354 4.142453,-2.35956 2.670197,-1.36584 2.97428,-1.59728 3.357709,-2.55556 0.231884,-0.57953 0.420492,-1.79544 0.419127,-2.702 -0.0031,-2.07829 -0.88927,-3.73744 -3.051689,-5.71377 -2.519154,-2.30236 -2.371597,-2.26455 -8.9978,-2.30571 -6.498432,-0.0404 -7.172626,-0.18488 -8.238217,-1.76595 -0.797656,-1.18352 -1.237588,-3.12922 -1.026224,-4.5387 0.185491,-1.236943 1.4235,-3.343584 3.25759,-5.543232 0.721778,-0.865638 1.469819,-2.309011 2.289402,-4.417486 1.447773,-3.724572 1.539006,-5.037627 0.563466,-8.109622 l -0.65387,-2.059049 0.648551,-0.980027 c 0.356703,-0.539014 0.719117,-1.492213 0.805364,-2.118217 0.08625,-0.626004 0.319625,-1.554909 0.518619,-2.064232 0.198994,-0.509323 0.437399,-1.724521 0.529789,-2.700441 0.126452,-1.335722 0.277551,-1.806682 0.611178,-1.904979 0.381155,-0.112298 4.737247,-0.950827 4.939483,-0.950827 0.180887,0 0.455625,-1.325219 0.561753,-2.70966 0.141531,-1.846273 0.864594,-3.157059 2.172952,-3.939182 0.534101,-0.31928 1.209218,-0.790843 1.500259,-1.047918 0.46672,-0.41225 1.528329,-0.500644 8.995834,-0.749036 4.656666,-0.154894 10.966979,-0.400539 14.022916,-0.545878 10.183347,-0.484314 23.675983,-1.06312 37.041663,-1.589012 7.27605,-0.286286 14.4198,-0.587799 15.875,-0.670028 3.12428,-0.176542 40.11828,-1.71186 41.27656,-1.713052 0.6282,-6.35e-4 0.86856,0.164662 1.14392,0.786746 0.19174,0.43316 0.28101,0.896934 0.1984,1.030609 -0.0826,0.133675 0.0104,0.304693 0.20679,0.38004 0.19635,0.07535 0.43062,0.590637 0.52059,1.145089 0.13873,0.854877 0.0566,1.119764 -0.54031,1.742814 -0.38715,0.404095 -0.86825,0.734718 -1.06911,0.734718 -0.24087,0 -0.30981,0.174523 -0.2025,0.512618 0.0895,0.281939 0.0195,0.787955 -0.15559,1.124479 -0.17506,0.336523 -0.40547,0.790455 -0.51203,1.008736 -0.11779,0.24128 -0.51659,0.381581 -1.01721,0.357863 -0.62925,-0.02981 -0.82346,0.07263 -0.82346,0.434338 0,0.567217 -1.21575,0.94904 -1.71157,0.537544 -0.50098,-0.415778 -1.16422,-0.06383 -1.00769,0.534727 0.0964,0.36856 -0.098,0.635348 -0.71051,0.9751 -1.4962,0.82995 -1.67625,1.033179 -1.70315,1.922459 -0.0224,0.739617 -0.18795,0.958436 -1.07257,1.417515 -1.25823,0.652965 -1.91648,1.276214 -2.04088,1.932364 -0.0625,0.329507 -0.36661,0.51363 -0.94025,0.569226 -0.77298,0.07492 -0.83493,0.147077 -0.70103,0.816586 0.15504,0.775173 -0.4136,1.614778 -1.09363,1.614778 -0.37328,0 -0.81982,0.987097 -0.56281,1.244108 0.0802,0.08025 -0.0384,0.502267 -0.26363,0.937829 -0.37217,0.719698 -0.50299,0.779394 -1.4343,0.654479 -1.34484,-0.18038 -1.7739,0.277127 -1.31007,1.396918 0.40824,0.985567 -0.0405,1.692018 -0.96284,1.515708 -0.66519,-0.127159 -0.88924,0.227102 -0.88924,1.40604 0,0.79124 -0.86806,1.840752 -1.52249,1.840752 -0.20041,0 -0.59645,-0.124198 -0.88008,-0.275992 -0.41197,-0.22048 -0.54914,-0.180565 -0.68197,0.198437 -0.0914,0.260935 -0.60625,1.010211 -1.144,1.665055 -1.61626,1.968185 -1.70246,2.247027 -0.93271,3.016784 0.70626,0.706255 0.81367,1.206699 0.41806,1.947744 -0.13489,0.252687 -0.30975,0.667789 -0.38857,0.922451 -0.0788,0.254661 -0.35906,0.463021 -0.62276,0.463021 -0.29441,0 -0.60037,0.320296 -0.7927,0.829841 -0.29615,0.784596 -0.37252,0.821892 -1.40058,0.683999 -0.82618,-0.110813 -1.05565,-0.06323 -0.95536,0.198117 0.0726,0.189177 -0.0413,0.591399 -0.25315,0.893826 -0.29137,0.415989 -0.52808,0.499602 -0.97223,0.343419 -0.3229,-0.113546 -0.94427,-0.127895 -1.38084,-0.03189 -0.64783,0.142468 -0.70863,0.21172 -0.33073,0.376722 0.25467,0.111188 0.46303,0.349565 0.46303,0.529722 0,0.475671 -0.96847,1.278078 -1.37376,1.138203 -0.20543,-0.0709 -0.46258,0.213707 -0.63287,0.700453 -0.37986,1.085773 -1.3424,1.272803 -1.58458,0.307887 -0.19612,-0.781401 -0.90671,-0.92393 -0.90671,-0.181864 0,0.634799 -0.66818,1.19553 -1.18726,0.99634 -0.24764,-0.095 -0.40024,-0.002 -0.40024,0.24329 0,0.21828 -0.16544,0.46036 -0.36764,0.53795 -0.20456,0.0785 -0.31107,0.35737 -0.24012,0.62869 0.16031,0.61302 -0.8235,1.63822 -1.37062,1.42828 -0.47596,-0.18265 -0.50653,0.008 -0.11787,0.73392 0.21474,0.40124 0.18212,0.78967 -0.13229,1.57546 -0.52223,1.30519 -0.52285,1.2968 0.0963,1.2968 0.28245,0 0.59464,0.13121 0.69376,0.29158 0.0991,0.16037 0.58239,0.45962 1.07394,0.66501 0.49156,0.20539 0.89375,0.55043 0.89375,0.76675 0,0.21633 0.18154,0.39333 0.40342,0.39333 0.53929,0 1.02452,1.27444 0.65483,1.71989 -0.15796,0.19033 -0.22571,1.05368 -0.15836,2.01834 0.10063,1.44159 0.0377,1.77154 -0.43462,2.27827 -0.52643,0.56477 -0.53074,0.61636 -0.0921,1.10108 0.77744,0.85907 0.4562,1.92437 -0.77007,2.55363 -0.8206,0.42109 -1.07047,0.71037 -1.11239,1.28776 -0.0297,0.40957 0.11892,0.91765 0.33034,1.12906 0.50128,0.50129 0.756,1.54764 0.51918,2.13273 -0.10321,0.25499 -0.21337,0.91493 -0.24481,1.46655 -0.0523,0.91708 0.0398,1.06429 1.0755,1.71979 0.79762,0.50481 1.13551,0.90017 1.14231,1.33658 0.005,0.34085 0.2484,0.92323 0.54018,1.29418 0.40506,0.51494 0.45997,0.75946 0.23219,1.03392 -0.16409,0.19771 -0.4439,0.35947 -0.62181,0.35947 -0.1779,0 -0.52051,0.21773 -0.76135,0.48385 -0.46479,0.5136 -0.56734,0.8595 -0.23944,0.80773 0.92216,-0.1456 1.12448,0.0647 1.12448,1.16904 0,0.62574 -0.13852,1.27623 -0.30782,1.44553 -0.1693,0.1693 -0.2918,0.73395 -0.27222,1.25477 0.0231,0.61489 -0.1009,0.99934 -0.35364,1.09633 -0.21408,0.0821 -0.38924,0.36625 -0.38924,0.63132 0,0.26508 -0.17527,0.65724 -0.3895,0.87146 -0.32809,0.32809 -0.33248,0.43682 -0.0279,0.68963 0.52949,0.43943 0.6669,2.14723 0.24087,2.99357 -0.25176,0.50014 -0.59159,0.74175 -1.08707,0.77286 -0.39644,0.0249 -0.95893,0.0625 -1.24997,0.0836 -1.43221,0.10382 -2.57564,1.1386 -2.01429,1.8229 0.13408,0.16345 0.28497,0.59485 0.33529,0.95865 0.0715,0.51717 0.33994,0.74007 1.23049,1.02184 0.90668,0.28687 1.12255,0.47024 1.05834,0.89902 -0.0444,0.29625 -0.31879,0.66986 -0.60983,0.83024 -0.29104,0.16038 -0.58024,0.32284 -0.64267,0.36101 -0.1791,0.10952 1.08187,1.74172 1.67495,2.16805 0.29485,0.21195 0.93858,0.35068 1.4305,0.3083 0.82364,-0.071 0.88058,-0.0282 0.71976,0.54068 -0.096,0.33975 -0.69467,1.10615 -1.33027,1.70311 -1.06737,1.00248 -1.12275,1.11826 -0.7251,1.5159 0.39764,0.39765 0.38619,0.47771 -0.14989,1.04834 -1.02692,1.09311 -0.64746,1.50976 1.37504,1.50976 0.61512,0 1.34953,0.17481 1.632,0.38846 0.28248,0.21365 0.77156,0.39224 1.08686,0.39687 0.64452,0.009 0.90964,0.47198 0.61149,1.06675 -0.12895,0.25723 0.15941,0.94487 0.81951,1.95428 0.81929,1.25282 0.96549,1.65641 0.74755,2.06363 -0.45872,0.85713 -1.44929,1.15594 -2.53295,0.76408 -1.05513,-0.38153 -1.39776,-0.14664 -1.40544,0.96351 -0.005,0.67082 1.42296,3.05804 1.6769,2.8041 0.0923,-0.0923 0.38299,0.0268 0.6459,0.26471 0.6842,0.6192 2.21561,0.14909 3.0698,-0.94236 0.58202,-0.74368 0.74115,-0.81157 1.37408,-0.5862 0.39371,0.14018 0.95704,0.57886 1.25184,0.97484 0.45346,0.60909 0.48818,0.82491 0.22547,1.40151 -0.1708,0.37485 -0.31054,1.19567 -0.31054,1.82404 0,1.50391 0.71421,2.41412 2.06357,2.62989 0.56219,0.0899 1.21843,0.38033 1.45831,0.6454 0.39874,0.4406 0.40031,0.53313 0.0183,1.07854 -0.38167,0.5449 -0.38055,0.63784 0.0129,1.07265 0.33892,0.37449 0.64521,0.43685 1.43581,0.29228 0.55273,-0.10108 1.14569,-0.27075 1.31768,-0.37704 0.55546,-0.34329 1.23202,0.0786 1.75782,1.09614 0.28242,0.54654 0.54029,1.03562 0.57305,1.08684 0.0327,0.0512 0.33187,-0.0976 0.6647,-0.33073 1.13463,-0.79473 2.60407,-0.41045 2.60407,0.681 0,0.25842 0.23768,0.85968 0.52818,1.33614 0.2905,0.47646 0.52862,1.13418 0.52916,1.46161 8e-4,0.43806 0.15824,0.59763 0.59631,0.60411 0.65041,0.01 1.78593,0.83006 1.78593,1.29038 0,0.15857 -0.23544,0.28832 -0.5232,0.28832 -0.28776,0 -1.19177,0.3617 -2.0089,0.80379 -0.83389,0.45115 -1.69071,0.73873 -1.95299,0.65549 -0.257,-0.0816 -0.61664,0.0317 -0.7992,0.25162 -0.18255,0.21997 -0.46321,0.31879 -0.62368,0.21962 -0.16047,-0.0992 -0.71252,-0.24811 -1.22679,-0.33095 -0.77686,-0.12515 -0.94919,-0.27318 -1.01875,-0.8751 -0.046,-0.39846 -0.18031,-0.72447 -0.2984,-0.72447 -0.39546,0 -2.09335,0.78272 -2.25092,1.03766 -0.0856,0.13857 -0.61141,0.24565 -1.16838,0.23796 -0.55697,-0.008 -1.29871,0.0815 -1.64832,0.1983 -0.84549,0.28235 -1.86207,0.15069 -2.37628,-0.30776 -0.22974,-0.20483 -0.60677,-0.37241 -0.83785,-0.37241 -0.23108,0 -0.46839,-0.14476 -0.52736,-0.32169 -0.0621,-0.18616 -0.71224,-0.35383 -1.54341,-0.398 -0.78989,-0.042 -2.32366,-0.13183 -3.40836,-0.19967 -1.56031,-0.0976 -2.06968,-0.0351 -2.43905,0.29918 -0.35025,0.31697 -0.83244,0.39219 -1.93042,0.30114 -0.80495,-0.0668 -1.46355,-0.0223 -1.46355,0.0988 0,0.12112 -0.22358,0.22021 -0.49686,0.22021 -0.98427,0 -2.40453,0.80257 -2.8109,1.58841 -0.44796,0.86624 -0.57727,0.91217 -1.53896,0.54653 -0.4691,-0.17835 -0.91696,-0.12431 -1.62341,0.19589 -0.79393,0.35986 -0.95377,0.55629 -0.85844,1.05499 0.0644,0.33704 -0.0505,0.7805 -0.25552,0.98547 -0.20496,0.20496 -0.53772,0.76769 -0.73945,1.2505 -0.20173,0.48281 -1.11688,1.52878 -2.03366,2.32437 l -1.66689,1.44655 -3.70234,-0.0768 c -2.03629,-0.0422 -3.76594,-0.1746 -3.84368,-0.29417 -0.0777,-0.11958 -0.55807,-0.29236 -1.06739,-0.38395 -0.50932,-0.0916 -1.28323,-0.24097 -1.71979,-0.33196 -0.43657,-0.091 -2.28203,-0.20544 -4.10104,-0.25435 -1.81901,-0.0489 -3.52453,-0.14527 -3.79003,-0.21414 -0.66462,-0.17241 -3.27524,0.53763 -4.2958,1.16837 -0.46209,0.28559 -1.0199,0.51926 -1.23957,0.51926 -0.21967,0 -0.54761,0.17859 -0.72877,0.39687 -0.3517,0.42378 -0.9408,0.44715 -3.042709,0.12073 z M 152.62678,90.436018 c 0,-0.145521 -0.11906,-0.264583 -0.26458,-0.264583 -0.14552,0 -0.26458,0.119062 -0.26458,0.264583 0,0.145521 0.11906,0.264583 0.26458,0.264583 0.14552,0 0.26458,-0.119062 0.26458,-0.264583 z"
         id="path3770"
         inkscape:connector-curvature="0" />
    </g>
  </g>
</svg>
